<svg xmlns="http://www.w3.org/2000/svg" width="744.9" height="381.91" viewBox="0 0 744.9 381.91"><defs><style>.cls-1{fill:#e0d9cc;stroke:#786b5a;stroke-miterlimit:10;stroke-width:0.25px;}.cls-2{fill:#c8bca3;}.cls-3{fill:#786b5a;}.cls-4{fill:#5f4f44;}</style></defs><g id="Layer_2" data-name="Layer 2"><rect class="cls-1" x="0.13" y="0.13" width="744.65" height="381.66"/><path class="cls-2" d="M31.56,383.2c-.53-26-.77-55,14.19-77.52,7.92-11.9,19.73-19.61,31.94-26.54,11.84-6.73,23.33-13.42,33.53-22.54,10.91-9.76,20.49-20.88,30.86-31.18a182.06,182.06,0,0,1,34.24-26.89c24.58-14.83,52.31-23.93,80.45-29.08,32.45-5.94,65.57-6.75,98.48-6.51,32.44.23,65.06.36,97.41,3.11,56.56,4.83,116.23,20.62,156.09,63.71,20.48,22.13,30.77,50.73,47.83,75.21,16.5,23.68,37.55,43.71,59.14,62.68,5.5,4.83,11,9.6,16.59,14.37.13.11.3-.07.18-.18-22.75-19.55-45.66-39.26-64.74-62.54a251.84,251.84,0,0,1-25.86-39c-7.41-13.56-14.45-27.42-23.81-39.78-33.84-44.7-89.78-65.05-143.55-72.31-32.74-4.42-65.84-4.76-98.82-5.26-33.58-.51-67.31-.79-100.69,3.46-28.74,3.65-57.24,10.81-83.37,23.54A184.88,184.88,0,0,0,156,212.44c-11.5,9.34-21.39,20.38-31.66,31-10.47,10.83-21.49,20.74-34.49,28.45-11.59,6.88-24,12.73-34.1,21.82-19.6,17.65-23.91,44.73-24.52,69.83-.16,6.55-.08,13.1.06,19.65a.13.13,0,0,0,.25,0Z"/><path class="cls-3" d="M263.43,100.48A29.38,29.38,0,0,0,242,95.24a23.85,23.85,0,0,0-16.25,10.83,19.78,19.78,0,0,0-1.24,18.33,18.19,18.19,0,0,0,5.75,7.35,21,21,0,0,0,10.07,3.65,46.2,46.2,0,0,0,12.32.06c3.48-.51,6.8-1.83,8.9-4.77.47-.65-.61-1.28-1.08-.63-3.75,5.23-11.9,4.7-17.57,4.33a23.51,23.51,0,0,1-10.57-2.76,16.5,16.5,0,0,1-5.9-6.15,18.51,18.51,0,0,1-.31-17.52,22.36,22.36,0,0,1,14-11c7.77-2,16.12.11,22.6,4.64.66.47,1.29-.62.63-1.07Z"/><path class="cls-3" d="M233,133.14c-19.48,5.18-30.36,27.82-24.77,46.63a45.22,45.22,0,0,0,18,24,49.26,49.26,0,0,0,30.45,8.4,63,63,0,0,0,35.87-14.1c.62-.51-.27-1.39-.89-.89-17,13.68-41.83,18.86-61.44,7.63a45.34,45.34,0,0,1-19.46-21.66,36.71,36.71,0,0,1,0-27.93c4-9.84,12.15-18.08,22.57-20.86a.62.62,0,0,0-.34-1.2Z"/><path class="cls-3" d="M354.29,138.68c-6.58-8-21.4-7.43-26.36,2.14-2.38,4.59-2.14,11.38,3.25,13.68,2.87,1.22,6.12.67,9.09.15,3.3-.58,6.49-1.06,9.82-.4a23.68,23.68,0,0,1,15,10.65,26,26,0,0,1,3.1,19.16c-2.94,14.12-15,23.63-28.73,26.33-11.87,2.34-26.56-.11-34.24-10.35a22.81,22.81,0,0,1-2.33-3.88c-.35-.72-1.43-.09-1.08.63,5.23,10.89,17.89,15.77,29.38,15.69,13.22-.09,26.93-6,34-17.56,6.65-10.84,6.81-25.46-2.39-34.91a23.63,23.63,0,0,0-15.58-7.35c-3.37-.16-6.61.81-9.94,1.19s-6.93,0-8.69-3.19c-3-5.42,1-12.07,5.94-14.61a16,16,0,0,1,15.71.7,13.21,13.21,0,0,1,3.11,2.81c.51.62,1.39-.27.89-.88Z"/><path class="cls-3" d="M421.93,134.81l17.24.23a.63.63,0,0,0,0-1.25l-17.24-.23a.63.63,0,0,0,0,1.25Z"/><path class="cls-3" d="M438.54,134.42l.71,29.21c.11,4.85.24,9.7.34,14.54a65.69,65.69,0,0,1-.53,12.06,23.1,23.1,0,0,1-4.46,10.94,22.69,22.69,0,0,1-9.33,6.59,43,43,0,0,1-24.8,1.79c-8.68-2-16.76-7.55-20.12-16-.29-.74-1.5-.41-1.2.34,6.51,16.48,26.87,20.52,42.44,16.43,7.65-2,14.36-6.53,17.24-14.14,3.1-8.23,2-17.67,1.82-26.27l-.86-35.45a.63.63,0,0,0-1.25,0Z"/><path class="cls-3" d="M449.24,211.4l35.14-60.18,10-17.19-1.15-.15,21.68,61L521.06,212c.27.75,1.48.43,1.21-.33l-21.68-61-6.11-17.18a.63.63,0,0,0-1.14-.15L458.2,193.58l-10,17.19a.63.63,0,0,0,1.08.63Z"/><path class="cls-3" d="M475.84,164.68a10.74,10.74,0,0,0,6.13,1c2.36-.32,4.31-1.54,6.33-2.72,4.72-2.73,9.82-2.44,15.06-1.91.8.09.79-1.17,0-1.25-4.45-.45-9.16-.88-13.39.91-2.19.92-4.07,2.5-6.32,3.29a9.33,9.33,0,0,1-7.18-.44c-.72-.35-1.36.73-.63,1.08Z"/><path class="cls-4" d="M360.34,231.66c-1.06-2-2.9-4.31-5.47-3.86s-3.45,3.3-3.74,5.54a72.62,72.62,0,0,0-.32,10.74c.07,3.91.34,7.82.77,11.71,0,.31.53.32.5,0a127.75,127.75,0,0,1-.71-18.24c.09-2.59-.14-6.21,1.78-8.24,2.56-2.7,5.5.23,6.76,2.61.15.28.58,0,.43-.26Z"/><path class="cls-4" d="M351.27,240.48a10.9,10.9,0,0,1,10.1.21c.29.16.54-.28.26-.43a11.46,11.46,0,0,0-10.62-.21c-.29.14,0,.57.26.43Z"/><path class="cls-4" d="M364.25,244.35c.47-1.65,1.54-3.69,3.54-3.62s3.37,2.1,4,3.82c1.13,3.11,1.27,8.16-1.85,10.22-.27.18,0,.61.25.43,3.55-2.34,3.34-8.17,1.75-11.61-.81-1.74-2.46-3.54-4.56-3.34s-3.11,2.23-3.6,4a.25.25,0,0,0,.48.13Z"/><path class="cls-4" d="M369.94,254.75c-1.33.61-2.66.77-3.81-.28a6.62,6.62,0,0,1-2.05-2.83,11.46,11.46,0,0,1-.34-3.55,13.7,13.7,0,0,1,.6-3.92c.09-.31-.39-.44-.49-.14a15.37,15.37,0,0,0-.62,4.47,9.49,9.49,0,0,0,.64,4,5.74,5.74,0,0,0,1.06,1.47,7,7,0,0,0,1.53,1.39,4,4,0,0,0,3.74-.17c.29-.13,0-.56-.26-.43Z"/><path class="cls-4" d="M377.61,256A57.64,57.64,0,0,0,381,240c0-.27-.44-.34-.49-.06a20.16,20.16,0,0,0,1.91,13.19c.56,1,2.17,3.88,3.57,2.28s.1-4.3-.5-6a52.68,52.68,0,0,1-2.26-9.25c0-.32-.53-.18-.48.13a52.82,52.82,0,0,0,2,8.42,32.28,32.28,0,0,1,1.3,3.93,3.41,3.41,0,0,1-.21,2.16c-.57,1.06-1.46.34-2-.34-3-3.94-3.74-9.6-2.85-14.36l-.49-.07a57.09,57.09,0,0,1-3.34,15.87c-.11.3.38.43.49.13Z"/><path class="cls-4" d="M393.25,239.82v16.36a.25.25,0,0,0,.5,0V239.82a.25.25,0,0,0-.5,0Z"/><path class="cls-4" d="M390,242.83c.66-1.33,1.85-2.77,3.48-2.76s2.8,1.49,3.46,2.82c.14.29.58,0,.43-.25-.74-1.5-2.08-3-3.89-3.07s-3.17,1.52-3.91,3c-.15.29.28.54.43.26Z"/><path class="cls-2" d="M22.33,230a.13.13,0,0,0,0-.25.13.13,0,0,0,0,.25Z"/></g></svg>