<svg xmlns="http://www.w3.org/2000/svg" width="1920" height="941.31" viewBox="0 0 1920 941.31"><defs><style>.cls-1{fill:#f8f3e8;}.cls-2{fill:#c8bca3;}.cls-3{fill:#77512c;}.cls-4{fill:#a98152;}.cls-5{fill:#8b623e;}</style></defs><g id="Layer_2" data-name="Layer 2"><rect class="cls-1" width="1920" height="941.31"/><path class="cls-2" d="M97.42,989.21C96.1,918.26,95,840.1,130.24,776.1c18.9-34.31,48.44-58,81-78.6,30.24-19.12,60.3-37.24,86.38-62,27.68-26.3,51.54-56.22,76.92-84.66,26-29.11,54.13-55.68,86.15-78.09,61.66-43.15,133-70.93,206.3-86.88,85.8-18.68,174.1-21.4,261.6-20.81,86.52.58,173.65.9,259.82,9.35,151.1,14.81,305.82,65.32,403.88,187.88,50.36,62.94,75.48,140.79,118.74,208.16,42,65.36,95.86,121.83,151.56,175.55q20.79,20,41.83,39.79c.19.18.47-.1.29-.28-59.13-55.84-118.52-112.19-167.24-177.62-24.29-32.63-44.89-67.35-63.14-103.67-18.94-37.68-36.39-76.32-59.58-111.66-82.71-126.07-227-189.73-371.63-211.77-86.56-13.19-174.4-14-261.77-15.47-87.77-1.44-176-2-263.1,10.85C642.56,387.36,567.88,409.33,500.92,447a466.62,466.62,0,0,0-90.72,66.22c-28.62,26.89-53.13,57.67-79.24,86.9s-54.25,55.57-87.5,76.83c-30.78,19.69-63.64,37.3-88.76,64.41-47.69,51.47-56.42,125.87-57.84,193-.39,18.28-.18,36.55.16,54.82,0,.26.41.26.4,0Z"/><path class="cls-2" d="M97.22,989.91a.7.7,0,0,1-.45-.17.64.64,0,0,1-.25-.52c-.32-17.27-.56-35.87-.16-54.84.19-9,.53-19.58,1.27-31a420.23,420.23,0,0,1,6-51.09c1.22-6.8,2.65-13.62,4.33-20.37,9.35-37.53,24.52-67.24,46.4-90.85,20.39-22,46.19-38,71.15-53.41,5.83-3.61,11.86-7.34,17.7-11.08,30-19.19,57.79-43.58,87.4-76.74,7.34-8.22,14.68-16.71,21.78-24.92,18.14-21,36.9-42.68,57.48-62a466.68,466.68,0,0,1,90.83-66.29c61.93-34.85,135.12-58.71,217.54-70.91C803.6,363,887.92,363.26,981.4,364.8l12.26.2,16.74.27q19.64.28,39.34.76c64.32,1.49,129.62,4.51,193.5,14.24,77.85,11.86,148.24,34.38,209.2,66.93,69,36.86,123.8,85.66,162.77,145.06,18.32,27.93,33.3,58.39,47.78,87.84,3.85,7.84,7.84,15.95,11.83,23.88,19.63,39,40.26,72.93,63.09,103.59,49.37,66.3,109.26,122.86,167.18,177.55a.69.69,0,0,1,0,1,.7.7,0,0,1-1,0c-12.89-12.18-27.51-26-41.83-39.8-50.48-48.67-108-107.61-151.64-175.64-18.05-28.11-33.18-58.52-47.82-87.93-20.43-41.07-41.56-83.53-70.89-120.19-45.62-57-106.81-102.17-181.86-134.2C1346,401,1271.38,383,1188.4,374.88c-45.86-4.49-92.34-6.69-138.64-7.84q-19.79-.46-39.43-.77c-24.58-.35-49.06-.52-73.29-.68l-8.41,0c-83.58-.56-173.1,1.56-261.49,20.8-79.07,17.21-148.42,46.42-206.12,86.8-29.51,20.65-57.66,46.17-86.07,78-7.27,8.15-14.54,16.57-21.58,24.71-17.5,20.26-35.6,41.21-55.36,60-23.8,22.61-50.32,39.31-78.39,57l-8.07,5.09c-51.25,32.41-70.14,58.93-80.88,78.42-13.19,23.94-21.28,49.86-26.17,76.56A454.82,454.82,0,0,0,98.65,903c-1.79,29.19-1.25,58.42-.73,86.16h0a.69.69,0,0,1-.68.71Zm-.3-.69Z"/><path class="cls-3" d="M740.67,159.84c-15.54-12.06-35.68-18.56-55.3-15-17.3,3.18-32.48,14.66-41.19,29.82a59.84,59.84,0,0,0-4,50.8,52.07,52.07,0,0,0,13.93,20.79c7.41,6.51,16.77,9.86,26.43,11.24A129.36,129.36,0,0,0,696,258.66a105.08,105.08,0,0,0,13-.36c8.13-.83,16.52-3.1,22.56-8.91a26.23,26.23,0,0,0,3.93-4.86c.87-1.36-1.3-2.62-2.16-1.26-4.39,6.9-11.81,10.37-19.63,11.85-8.47,1.6-17.42,1.29-26,.69-9.73-.7-19.65-2.68-27.89-8.19a45.76,45.76,0,0,1-15.16-17.88,57.32,57.32,0,0,1-1-48.52c6.8-15.07,20-27.36,35.84-32.31,18-5.63,37.82-1.4,53.54,8.57,2,1.29,4,2.66,5.87,4.13,1.26,1,3-.78,1.77-1.77Z"/><path class="cls-4" d="M699.88,260.21c-1.37,0-2.69,0-3.93,0A128.22,128.22,0,0,1,680.29,259c-11.11-1.59-20.26-5.49-27.21-11.6A53.59,53.59,0,0,1,638.74,226,61,61,0,0,1,642.87,174c9.17-16,25-27.37,42.23-30.54,18.94-3.48,39.52,2.07,56.49,15.23h0a2.47,2.47,0,0,1,.45,3.59,2.9,2.9,0,0,1-4.06.55c-1.82-1.41-3.76-2.77-5.76-4-16.6-10.53-35.65-13.6-52.28-8.41-15.09,4.71-28.15,16.49-34.92,31.49a55.78,55.78,0,0,0,1,47.25,44.35,44.35,0,0,0,14.65,17.29c6.86,4.59,15.49,7.11,27.17,7.94,8.33.59,17.2.92,25.59-.66,8.7-1.65,15-5.41,18.65-11.19a2.75,2.75,0,0,1,3.84-.82,2.62,2.62,0,0,1,.85,3.69,27.8,27.8,0,0,1-4.16,5.14c-5.41,5.21-13.08,8.26-23.45,9.32C706,260.11,702.8,260.21,699.88,260.21ZM739.75,161h0l.92-1.18Z"/><path class="cls-3" d="M663.92,251.16a81.28,81.28,0,0,0-32.41,18.66,106.24,106.24,0,0,0-23,31.44,120.5,120.5,0,0,0-11.39,38.91,112.48,112.48,0,0,0,2.83,41.06,123.21,123.21,0,0,0,17.25,38.14,129.32,129.32,0,0,0,28.07,30A116.27,116.27,0,0,0,723.85,474a140.14,140.14,0,0,0,44.07-9.59,161.72,161.72,0,0,0,40.25-22.9q4.55-3.52,8.84-7.34c1.21-1.07-.57-2.83-1.77-1.77a162.78,162.78,0,0,1-38,25.26,143.72,143.72,0,0,1-42.67,12.87,122.21,122.21,0,0,1-43.84-2,113.55,113.55,0,0,1-35.9-15.47,126,126,0,0,1-29.64-27,122.88,122.88,0,0,1-19.84-35.52,111.83,111.83,0,0,1-6.54-40.14,116.62,116.62,0,0,1,7.83-38.92,109.36,109.36,0,0,1,19.9-33.15,84.34,84.34,0,0,1,29.53-21.86,72.66,72.66,0,0,1,8.46-3,1.25,1.25,0,0,0-.66-2.41Z"/><path class="cls-4" d="M717.81,475.66a117.31,117.31,0,0,1-73.48-25.15,130.31,130.31,0,0,1-28.41-30.3,124.21,124.21,0,0,1-17.46-38.6A113.73,113.73,0,0,1,595.6,340a121.7,121.7,0,0,1,11.53-39.39,106.6,106.6,0,0,1,23.37-31.89,83.07,83.07,0,0,1,33-19h0a2.6,2.6,0,0,1,2.59.61,2.92,2.92,0,0,1,.79,2.75A2.65,2.65,0,0,1,665,255a70.58,70.58,0,0,0-8.28,2.94,82.22,82.22,0,0,0-29,21.48,106.88,106.88,0,0,0-19.62,32.69,114.68,114.68,0,0,0-7.73,38.41,110,110,0,0,0,6.45,39.6,120.91,120.91,0,0,0,19.6,35.1,124.14,124.14,0,0,0,29.28,26.63,111.73,111.73,0,0,0,35.43,15.27,119.87,119.87,0,0,0,43.3,1.92,141.56,141.56,0,0,0,42.22-12.74,161.27,161.27,0,0,0,37.61-25,2.71,2.71,0,0,1,2.69-.57,2.91,2.91,0,0,1,1.92,2.12,2.54,2.54,0,0,1-.85,2.46c-2.91,2.58-5.91,5.07-8.92,7.4a163.16,163.16,0,0,1-40.62,23.12,141.72,141.72,0,0,1-44.54,9.69Q720.87,475.66,717.81,475.66Zm-53.89-224.5.41,1.44h0Z"/><path class="cls-3" d="M974.79,268a40,40,0,0,0-37.48-15.56c-14.71,2-27.49,11.91-32,26.18-2.29,7.21-2.74,15.5.22,22.58a20.3,20.3,0,0,0,6.7,8.62,21.61,21.61,0,0,0,11.77,3.9c9,.48,17.62-2.77,26.49-3.58A46.87,46.87,0,0,1,973.32,314c15.31,6.63,27.31,20,33.71,35.28,7,16.68,7.22,35.76,2.73,53.11a93.05,93.05,0,0,1-27.33,45.68,99.62,99.62,0,0,1-48.36,23.56,96.59,96.59,0,0,1-48.52-2.87c-15-5-28.8-14.37-37.69-27.66a66.34,66.34,0,0,1-5.74-10.58c-.63-1.47-2.79-.2-2.16,1.26,6.41,14.86,18.17,26.69,32.46,34.12a92.41,92.41,0,0,0,45.63,10,106.62,106.62,0,0,0,51.05-14.87,94.14,94.14,0,0,0,36.15-39.29c7.9-16.19,11.55-34.7,9.42-52.64-2-17.23-9.68-33.49-22.38-45.43-11.47-10.78-27.09-17.77-43-15.89-8.81,1-17.62,4.25-26.57,3.36A18,18,0,0,1,911.5,306a19.55,19.55,0,0,1-4.89-9.48c-1.71-7.53-.16-15.87,3.35-22.67a35.41,35.41,0,0,1,15.38-15.09,38.71,38.71,0,0,1,39.81,3.06,35,35,0,0,1,7.48,7.51c1,1.28,3.12,0,2.16-1.26Z"/><path class="cls-4" d="M914.62,477.48a93,93,0,0,1-42.89-10.24c-15.05-7.82-26.82-20.2-33.14-34.85a2.81,2.81,0,0,1,.33-2.82,2.88,2.88,0,0,1,2.58-1.18,2.49,2.49,0,0,1,2,1.55,65.28,65.28,0,0,0,5.6,10.34c8.18,12.22,21.3,21.84,36.93,27.07a95.21,95.21,0,0,0,47.76,2.82A97.75,97.75,0,0,0,981.42,447,91,91,0,0,0,1008.3,402c4.74-18.26,3.79-36.78-2.66-52.16-6.58-15.71-18.58-28.28-32.91-34.49a45.53,45.53,0,0,0-22.14-3.71,96.86,96.86,0,0,0-10.27,1.7c-5.31,1.07-10.8,2.19-16.43,1.89a22.89,22.89,0,0,1-12.58-4.19,21.75,21.75,0,0,1-7.19-9.25c-2.85-6.81-3-15.2-.27-23.61,4.61-14.47,17.66-25.15,33.27-27.22A41.35,41.35,0,0,1,976,267.15h0a2.53,2.53,0,0,1-.56,3.61,2.84,2.84,0,0,1-4-.57,33.72,33.72,0,0,0-7.17-7.19A37.36,37.36,0,0,0,926,260.07a34,34,0,0,0-14.73,14.44c-3.59,6.95-4.76,14.84-3.22,21.65a18.18,18.18,0,0,0,4.5,8.76,16.56,16.56,0,0,0,10.26,4.75c5.64.56,11.43-.61,17-1.75,3-.61,6.13-1.24,9.22-1.6,15.2-1.8,31.33,4.13,44.25,16.28,12.58,11.82,20.69,28.28,22.84,46.34,2.08,17.58-1.31,36.57-9.56,53.48a95.39,95.39,0,0,1-36.73,39.92,107.92,107.92,0,0,1-51.77,15.08Q916.36,477.48,914.62,477.48Zm59-208.56h0l1.21-.89Z"/><path class="cls-3" d="M1149.26,255.93l44.45.67a1.25,1.25,0,0,0,0-2.5l-44.45-.67a1.25,1.25,0,0,0,0,2.5Z"/><path class="cls-4" d="M1193.73,258.1h0l-44.44-.67a2.67,2.67,0,0,1-2.32-1.36,2.91,2.91,0,0,1,0-2.87,2.67,2.67,0,0,1,2.34-1.27l44.44.67a2.66,2.66,0,0,1,2.32,1.37,2.89,2.89,0,0,1,0,2.86A2.63,2.63,0,0,1,1193.73,258.1Zm-44.45-3.17,0,1Zm0-.5v.5h0v-.5Z"/><path class="cls-3" d="M1192.46,255.35l1.79,81.78q.45,20.25.89,40.51c.24,11.33.35,22.72-1.08,34-1.38,10.91-4.36,21.82-10.44,31.1-5.74,8.77-14.11,15.4-23.5,19.91a92.79,92.79,0,0,1-30.23,8.15,102.36,102.36,0,0,1-36-2.07c-21-5.25-39.48-19-49.13-38.56a67.59,67.59,0,0,1-3-7.24c-.53-1.51-3-.86-2.41.66C1046.52,444,1063,460,1083,467.86a95,95,0,0,0,36.64,6.1,108.26,108.26,0,0,0,33.1-5.62c9.89-3.43,19.26-8.7,26.58-16.28,7.72-8,12.55-18.14,15.16-28.86,2.75-11.27,3.3-23,3.3-34.52,0-13.11-.47-26.23-.76-39.33l-1.83-83.53-.23-10.47a1.25,1.25,0,0,0-2.5,0Z"/><path class="cls-4" d="M1117.22,475.48a94.83,94.83,0,0,1-34.77-6.22c-21.08-8.28-37.32-24.75-44.56-45.19a2.57,2.57,0,0,1,1.61-3.35,2.81,2.81,0,0,1,3.63,1.68,63.87,63.87,0,0,0,3,7.08c9.21,18.65,26.76,32.42,48.15,37.78a100.83,100.83,0,0,0,35.48,2,91.37,91.37,0,0,0,29.74-8c9.74-4.69,17.66-11.39,22.9-19.38s8.63-18.06,10.21-30.47c1.41-11.13,1.3-22.32,1.06-33.76q-.29-13.5-.59-27L1191,255.38a2.63,2.63,0,0,1,2.65-2.73,2.69,2.69,0,0,1,2.85,2.67l2.06,94c.08,3.68.17,7.37.27,11.05.24,9.28.49,18.87.49,28.32,0,10.46-.4,22.78-3.34,34.88-2.91,11.94-8.14,21.89-15.54,29.55-7,7.21-16.11,12.81-27.17,16.65a109.44,109.44,0,0,1-33.55,5.7C1118.85,475.48,1118,475.48,1117.22,475.48ZM1194,255.32l-1.5,0,1.5,0Z"/><path class="cls-3" d="M1219.36,473.18l45.47-85.56,45.48-85.56L1335.85,254l-2.28-.3,28,86.46,28,86.46,15.68,48.45c.49,1.53,2.91.87,2.41-.66l-28-86.46-28-86.46L1336,253a1.26,1.26,0,0,0-2.28-.3l-45.48,85.57-45.47,85.56-25.55,48.07c-.75,1.42,1.4,2.68,2.16,1.26Z"/><path class="cls-4" d="M1406.41,477.43a2.74,2.74,0,0,1-2.62-1.91l-69.63-215.14L1220.69,473.89a2.63,2.63,0,0,1-3.63,1.08,2.75,2.75,0,0,1-1.18-3.75L1331.8,253.09l-.39-1.2,1,.13a2.64,2.64,0,0,1,2.58-1.39,2.87,2.87,0,0,1,2.46,1.93l0,.12.74.1-.44.84,71.31,220.32a2.62,2.62,0,0,1-1.74,3.35A3.19,3.19,0,0,1,1406.41,477.43ZM1218,472.48h0l1.32.7Z"/><path class="cls-3" d="M1288.45,340.63a24.92,24.92,0,0,0,13.49,3.11,28.46,28.46,0,0,0,13.22-4.6c4.23-2.59,8.2-5.62,12.88-7.37a43.47,43.47,0,0,1,14.34-2.49,128.27,128.27,0,0,1,16.84,1.12c1.6.18,1.58-2.32,0-2.5-9.44-1.06-19.22-2.09-28.53.41a44.8,44.8,0,0,0-13,6.22c-4,2.58-7.94,5.25-12.63,6.27a22.34,22.34,0,0,1-15.39-2.32c-1.41-.78-2.68,1.38-1.26,2.15Z"/><path class="cls-4" d="M1300.5,345.29a26.61,26.61,0,0,1-12.77-3.34,2.57,2.57,0,0,1-1.4-2.24,2.91,2.91,0,0,1,1.38-2.5,2.68,2.68,0,0,1,2.72,0,20.81,20.81,0,0,0,14.35,2.18c4.24-.92,7.84-3.27,11.66-5.77l.47-.3a46.71,46.71,0,0,1,13.39-6.41c9.8-2.63,20-1.47,29.09-.45a2.8,2.8,0,0,1,2.27,1.68,2.9,2.9,0,0,1-.26,2.83,2.48,2.48,0,0,1-2.35,1,128.74,128.74,0,0,0-16.64-1.11,41.38,41.38,0,0,0-13.84,2.4,48.72,48.72,0,0,0-9.34,5.15c-1.09.71-2.18,1.41-3.29,2.09-4.9,3-9.32,4.54-13.9,4.82C1301.52,345.27,1301,345.29,1300.5,345.29Zm-11.33-6-.72,1.31.72-1.31Z"/><path class="cls-5" d="M946.26,512.69c-1.52-2.78-4-6.19-8-6.57s-6.39,2.55-7.44,5.38c-1.4,3.82-1.29,8-1.42,11.94q-.24,7.17,0,14.36.31,8.12,1.29,16.19c0,.19.37.19.35,0a200.38,200.38,0,0,1-1.42-26.36,96.32,96.32,0,0,1,.58-12.13c.46-3.27,1.59-7.86,5.88-8.92,4.74-1.18,8.14,3.18,9.83,6.27.1.17.41,0,.31-.16Z"/><path class="cls-4" d="M930.92,554.63a.72.72,0,0,1-.29-.06.65.65,0,0,1-.4-.53c-.65-5.41-1.08-10.86-1.29-16.22-.19-4.78-.2-9.62,0-14.4,0-.54,0-1.09,0-1.64.09-3.48.18-7.08,1.41-10.45,1.11-3,3.78-6.11,8-5.7,3.25.31,6.07,2.6,8.39,6.82h0a.64.64,0,0,1,0,.64.71.71,0,0,1-.6.34h0a.66.66,0,0,1-.55-.34c-1.51-2.74-4.71-7.16-9.28-6-4,1-5.06,5.33-5.51,8.51a84.41,84.41,0,0,0-.56,10.66v1.4a199.94,199.94,0,0,0,1.42,26.3.66.66,0,0,1-.24.57A.7.7,0,0,1,930.92,554.63Zm.3-.71h0Zm14.6-41h0Z"/><path class="cls-5" d="M929.73,527.46a21.56,21.56,0,0,1,18.81.36c.2.1.38-.16.18-.26a22,22,0,0,0-19.17-.37c-.2.1,0,.36.18.27Z"/><path class="cls-4" d="M948.63,528.34a.71.71,0,0,1-.32-.07,20.94,20.94,0,0,0-18.37-.36.7.7,0,0,1-.55,0,.74.74,0,0,1-.37-.35.59.59,0,0,1,0-.47.65.65,0,0,1,.34-.37,22.67,22.67,0,0,1,19.61.37.65.65,0,0,1,0,1.12A.62.62,0,0,1,948.63,528.34Zm.13-1h0ZM929.52,527Z"/><path class="cls-5" d="M983.78,555.49a117.22,117.22,0,0,0,7.87-35c0-.21-.4-.26-.44,0a41,41,0,0,0,4,27.87c1.08,1.95,5.39,9.54,8.49,5.4,1.35-1.8,1.3-4.16.82-6.17a74.78,74.78,0,0,0-2.81-7.74,109.12,109.12,0,0,1-4.81-18.94c0-.24-.48-.14-.44.11a110.12,110.12,0,0,0,3.44,14.77c.75,2.43,1.58,4.84,2.51,7.22s2.05,4.72,2,7.22a6,6,0,0,1-.91,3.11,2.78,2.78,0,0,1-1.18,1.09,2.67,2.67,0,0,1-2.74-.82,19.3,19.3,0,0,1-3.86-5.32A38.51,38.51,0,0,1,991.45,536a41.91,41.91,0,0,1,.19-15.43l-.44-.05a116.88,116.88,0,0,1-7.86,34.86c-.1.24.34.34.44.1Z"/><path class="cls-4" d="M983.56,556.13a.8.8,0,0,1-.3-.06.65.65,0,0,1-.39-.86,114.83,114.83,0,0,0,7-26.57,43.89,43.89,0,0,1,.86-8.19l0-.47.21,0a.77.77,0,0,1,1.06.12l.23,0-.09.47q-.28,4-.83,7.9a42.37,42.37,0,0,0,.63,7.41A37.91,37.91,0,0,0,996.13,548a19.39,19.39,0,0,0,3.75,5.19c.89.77,1.59,1,2.21.73a2.32,2.32,0,0,0,1-.9,5.73,5.73,0,0,0,.82-2.85,15.27,15.27,0,0,0-1.54-6.08l-.38-1c-.92-2.35-1.77-4.79-2.53-7.25A111.06,111.06,0,0,1,996,521.09a.68.68,0,0,1,.25-.65.8.8,0,0,1,.76-.13.64.64,0,0,1,.41.51,109.1,109.1,0,0,0,4.8,18.85c.31.9.68,1.79,1,2.69a35.11,35.11,0,0,1,1.78,5.11c.44,1.86.64,4.51-.9,6.58a3,3,0,0,1-2.66,1.41c-2-.14-4.23-2.45-6.67-6.87a39.85,39.85,0,0,1-4.53-13.6,115.28,115.28,0,0,1-6,20.69h0A.73.73,0,0,1,983.56,556.13Z"/><path class="cls-5" d="M1019.67,519.64v36.7c0,.25.42.25.42,0v-36.7c0-.25-.42-.25-.42,0Z"/><path class="cls-4" d="M1019.88,557a.69.69,0,0,1-.71-.69v-36.7a.71.71,0,0,1,1.42,0v36.7a.67.67,0,0,1-.25.53A.73.73,0,0,1,1019.88,557Z"/><path class="cls-5" d="M1012,526.2c1.42-2.9,4.07-6.39,7.88-6.36s6.45,3.58,7.85,6.5c.11.23.47,0,.36-.2-1.46-3.06-4.22-6.66-8.21-6.7s-6.76,3.53-8.25,6.56c-.11.23.25.43.37.2Z"/><path class="cls-4" d="M1027.9,526.94h-.05a.67.67,0,0,1-.55-.39c-1.11-2.3-3.54-6.18-7.4-6.21h0c-4,0-6.49,4.25-7.38,6.08a.68.68,0,0,1-.56.38.74.74,0,0,1-.66-.32.7.7,0,0,1,0-.7c1-2.06,3.87-6.84,8.65-6.84h.06c4.81,0,7.65,4.9,8.65,7a.7.7,0,0,1,0,.7A.74.74,0,0,1,1027.9,526.94Zm-.24-.59Z"/><path class="cls-4" d="M964.11,553.94c-5.11,0-9.27-7.16-9.27-16s4.16-16,9.27-16,9.28,7.16,9.28,16S969.23,553.94,964.11,553.94Zm0-30.71c-4.45,0-8.07,6.62-8.07,14.76s3.62,14.75,8.07,14.75,8.08-6.62,8.08-14.75S968.56,523.23,964.11,523.23Z"/></g></svg>