<svg xmlns="http://www.w3.org/2000/svg" width="1920" height="1084.14" viewBox="0 0 1920 1084.14"><defs><style>.cls-1{fill:#f8f3e8;}.cls-2{fill:#c8bca3;}.cls-3{fill:#77512c;}.cls-4{fill:#a98152;}.cls-5{fill:#8b623e;}</style></defs><g id="Layer_2" data-name="Layer 2"><rect class="cls-1" width="1920" height="1081.23"/><path class="cls-2" d="M79.47,1083.45c-1.32-71-2.44-149.12,32.82-213.12,18.9-34.31,48.44-58,81-78.59,30.25-19.13,60.3-37.24,86.39-62,27.68-26.29,51.54-56.22,76.91-84.66,26-29.11,54.14-55.68,86.15-78.08,61.66-43.16,133-70.93,206.3-86.88,85.81-18.68,174.1-21.41,261.61-20.82,86.51.58,173.64.9,259.81,9.35,151.1,14.82,305.83,65.32,403.88,187.88,50.36,62.94,75.49,140.79,118.74,208.16,42,65.36,95.87,121.84,151.57,175.56,13.85,13.35,27.84,26.57,41.83,39.78.18.18.47-.1.28-.28-59.13-55.83-118.52-112.18-167.24-177.62-24.29-32.63-44.88-67.35-63.14-103.66-18.94-37.68-36.39-76.32-59.58-111.67C1514.13,560.7,1369.88,497,1225.22,475c-86.57-13.19-174.41-14-261.78-15.47-87.77-1.44-176-2-263.1,10.85C624.61,481.6,549.93,503.56,483,541.24a466.64,466.64,0,0,0-90.73,66.21c-28.62,26.89-53.13,57.67-79.23,86.91s-54.25,55.57-87.5,76.83c-30.79,19.68-63.65,37.29-88.76,64.4-47.7,51.47-56.42,125.88-57.85,193-.38,18.27-.18,36.55.16,54.82,0,.25.41.25.4,0Z"/><path class="cls-2" d="M79.28,1084.14a.76.76,0,0,1-.46-.16.74.74,0,0,1-.25-.52c-.32-17.28-.56-35.88-.16-54.84.19-9,.53-19.58,1.27-31.06a422.22,422.22,0,0,1,6-51.09c1.22-6.8,2.66-13.62,4.34-20.37,9.34-37.52,24.51-67.24,46.39-90.85,20.39-22,46.2-38,71.15-53.41,5.83-3.61,11.86-7.34,17.71-11.08,30-19.19,57.79-43.57,87.39-76.74,7.35-8.22,14.69-16.71,21.78-24.92,18.14-21,36.9-42.67,57.49-62a467.74,467.74,0,0,1,90.82-66.29c61.93-34.85,135.12-58.71,217.54-70.91C785.65,457.25,870,457.49,963.45,459l12.27.2,16.74.28q19.62.28,39.33.76c64.32,1.48,129.62,4.5,193.5,14.24,77.86,11.86,148.25,34.38,209.21,66.92,69,36.86,123.79,85.67,162.76,145.07,18.33,27.93,33.3,58.38,47.78,87.83,3.86,7.84,7.84,15.95,11.83,23.88,19.63,39,40.27,72.93,63.09,103.59,49.37,66.3,109.26,122.86,167.18,177.56a.68.68,0,0,1,0,1,.7.7,0,0,1-1,0c-12.89-12.18-27.5-26-41.83-39.79-50.47-48.68-108-107.62-151.64-175.65-18-28.11-33.18-58.52-47.81-87.93-20.44-41.06-41.57-83.53-70.9-120.19-45.62-57-106.8-102.16-181.85-134.19-64.12-27.37-138.71-45.37-221.69-53.5-45.86-4.5-92.34-6.69-138.63-7.85-13.19-.31-26.34-.54-39.43-.76-24.59-.36-49.06-.52-73.29-.68l-8.42-.06c-83.58-.56-173.1,1.57-261.49,20.8-79.07,17.22-148.42,46.42-206.12,86.8-29.5,20.65-57.65,46.17-86.06,78-7.28,8.16-14.55,16.57-21.58,24.71-17.51,20.26-35.61,41.21-55.37,60-23.8,22.61-50.31,39.31-78.39,57-2.68,1.69-5.38,3.38-8.07,5.09-51.24,32.41-70.14,58.93-80.87,78.41-13.19,23.94-21.28,49.87-26.17,76.56a453.09,453.09,0,0,0-5.86,50.14c-1.79,29.19-1.24,58.42-.73,86.17h0a.68.68,0,0,1-.68.7Zm-.31-.69h0Z"/><path class="cls-3" d="M698.73,246c-15.54-12.06-35.68-18.55-55.3-14.95-17.3,3.18-32.48,14.67-41.19,29.82a59.84,59.84,0,0,0-4,50.8,52.07,52.07,0,0,0,13.93,20.79c7.41,6.51,16.77,9.86,26.43,11.24A127.32,127.32,0,0,0,654,344.85a105.08,105.08,0,0,0,13-.36c8.13-.83,16.52-3.1,22.56-8.91a26.23,26.23,0,0,0,3.93-4.86c.87-1.36-1.3-2.61-2.16-1.26-4.39,6.9-11.81,10.37-19.63,11.85-8.47,1.6-17.42,1.3-26,.69-9.73-.7-19.65-2.68-27.89-8.19a45.69,45.69,0,0,1-15.16-17.88,57.32,57.32,0,0,1-1-48.52c6.8-15.07,20-27.36,35.84-32.31,18.05-5.63,37.82-1.4,53.54,8.58q3,1.92,5.87,4.12c1.26,1,3-.78,1.77-1.77Z"/><path class="cls-4" d="M657.94,346.4c-1.37,0-2.69,0-3.93,0a130.47,130.47,0,0,1-15.66-1.13c-11.11-1.59-20.27-5.5-27.21-11.6a53.59,53.59,0,0,1-14.34-21.39,61,61,0,0,1,4.13-52.07c9.17-16,25-27.38,42.23-30.55,18.94-3.48,39.52,2.07,56.49,15.24h0a2.46,2.46,0,0,1,.45,3.58A2.9,2.9,0,0,1,696,249c-1.82-1.41-3.76-2.77-5.76-4-16.6-10.53-35.65-13.6-52.28-8.41-15.09,4.72-28.15,16.49-34.92,31.5a55.75,55.75,0,0,0,1,47.24,44.28,44.28,0,0,0,14.65,17.29c6.86,4.59,15.49,7.11,27.17,7.94,8.33.59,17.2.92,25.59-.66,8.7-1.65,15-5.41,18.65-11.18a2.73,2.73,0,0,1,3.84-.82,2.62,2.62,0,0,1,.85,3.69,28.06,28.06,0,0,1-4.16,5.13c-5.41,5.21-13.09,8.26-23.45,9.32A91.07,91.07,0,0,1,657.94,346.4Zm39.87-99.18h0l.92-1.19Z"/><path class="cls-3" d="M622,337.35A81.28,81.28,0,0,0,589.57,356a106.29,106.29,0,0,0-23,31.45,120.35,120.35,0,0,0-11.39,38.91A112.51,112.51,0,0,0,558,467.43a123.42,123.42,0,0,0,17.25,38.14,129.48,129.48,0,0,0,28.07,29.95,116.27,116.27,0,0,0,78.61,24.68A140.14,140.14,0,0,0,726,550.61a161.9,161.9,0,0,0,40.25-22.9q4.54-3.53,8.84-7.34c1.21-1.07-.57-2.83-1.77-1.77a162.78,162.78,0,0,1-37.95,25.26,143.72,143.72,0,0,1-42.67,12.87,122,122,0,0,1-43.84-2,113.55,113.55,0,0,1-35.9-15.47,125.75,125.75,0,0,1-29.64-27,122.88,122.88,0,0,1-19.84-35.52,111.79,111.79,0,0,1-6.54-40.14,116.51,116.51,0,0,1,7.83-38.91,109.12,109.12,0,0,1,19.9-33.15,84.24,84.24,0,0,1,29.53-21.87,72.66,72.66,0,0,1,8.46-3,1.25,1.25,0,0,0-.66-2.41Z"/><path class="cls-4" d="M675.87,561.85a117.37,117.37,0,0,1-73.49-25.15A130.43,130.43,0,0,1,574,506.41a124.36,124.36,0,0,1-17.46-38.61,113.73,113.73,0,0,1-2.86-41.61,121.7,121.7,0,0,1,11.53-39.39,106.85,106.85,0,0,1,23.37-31.89,83.07,83.07,0,0,1,33-19h0a2.64,2.64,0,0,1,2.59.61,2.93,2.93,0,0,1,.79,2.76,2.67,2.67,0,0,1-1.88,1.92,70.58,70.58,0,0,0-8.28,2.94,82.22,82.22,0,0,0-29,21.48,106.88,106.88,0,0,0-19.62,32.69,114.45,114.45,0,0,0-7.73,38.42,109.8,109.8,0,0,0,6.45,39.6,120.75,120.75,0,0,0,19.6,35.09,124.14,124.14,0,0,0,29.28,26.63,111.73,111.73,0,0,0,35.43,15.27,119.87,119.87,0,0,0,43.3,1.92A141.27,141.27,0,0,0,734.7,542.5a161.27,161.27,0,0,0,37.61-25,2.74,2.74,0,0,1,2.69-.57,2.93,2.93,0,0,1,1.92,2.12,2.54,2.54,0,0,1-.85,2.46c-2.91,2.58-5.91,5.07-8.92,7.4A163.16,163.16,0,0,1,726.53,552,141.17,141.17,0,0,1,682,561.7Q678.93,561.85,675.87,561.85ZM622,337.35l.41,1.44h0Z"/><path class="cls-3" d="M932.85,354.23a40,40,0,0,0-37.48-15.56c-14.71,1.95-27.49,11.91-32,26.19-2.29,7.2-2.74,15.5.22,22.58a20.33,20.33,0,0,0,6.7,8.61A21.45,21.45,0,0,0,882,400c9,.48,17.62-2.77,26.49-3.58a46.87,46.87,0,0,1,22.86,3.83c15.31,6.63,27.31,20,33.71,35.28,7,16.68,7.22,35.76,2.72,53.12a93,93,0,0,1-27.32,45.68,99.69,99.69,0,0,1-48.36,23.55A96.59,96.59,0,0,1,843.61,555c-15-5-28.8-14.37-37.69-27.66a65.56,65.56,0,0,1-5.74-10.58c-.63-1.47-2.79-.2-2.16,1.26,6.41,14.87,18.17,26.69,32.46,34.12a92.3,92.3,0,0,0,45.63,10,106.72,106.72,0,0,0,51-14.86A94.22,94.22,0,0,0,963.31,508c7.9-16.18,11.54-34.7,9.42-52.64-2.05-17.23-9.68-33.49-22.38-45.43-11.47-10.78-27.09-17.77-43-15.88-8.81,1-17.62,4.25-26.57,3.35a18,18,0,0,1-11.18-5.19,19.55,19.55,0,0,1-4.89-9.48c-1.71-7.53-.16-15.87,3.35-22.67a35.41,35.41,0,0,1,15.38-15.09A38.69,38.69,0,0,1,923.21,348a34.77,34.77,0,0,1,7.48,7.5c.95,1.28,3.12,0,2.16-1.26Z"/><path class="cls-4" d="M872.68,563.67a93,93,0,0,1-42.89-10.24c-15-7.82-26.82-20.2-33.14-34.85a2.81,2.81,0,0,1,.33-2.82,2.88,2.88,0,0,1,2.58-1.18,2.49,2.49,0,0,1,2,1.55,64.84,64.84,0,0,0,5.6,10.34c8.18,12.23,21.3,21.84,36.93,27.07a95.21,95.21,0,0,0,47.76,2.82,97.66,97.66,0,0,0,47.63-23.2,91,91,0,0,0,26.88-44.94c4.73-18.25,3.79-36.78-2.66-52.16-6.58-15.71-18.58-28.27-32.91-34.48a45.56,45.56,0,0,0-22.14-3.72,99.48,99.48,0,0,0-10.27,1.7c-5.31,1.08-10.8,2.19-16.43,1.89a22.78,22.78,0,0,1-12.58-4.19,21.75,21.75,0,0,1-7.19-9.25c-2.85-6.81-2.95-15.2-.27-23.61,4.61-14.47,17.66-25.15,33.27-27.22a41.35,41.35,0,0,1,38.88,16.16h0a2.53,2.53,0,0,1-.56,3.61,2.84,2.84,0,0,1-4-.57,33.44,33.44,0,0,0-7.17-7.18,37.34,37.34,0,0,0-38.24-2.94,34,34,0,0,0-14.73,14.44c-3.59,6.95-4.77,14.84-3.22,21.65a18.26,18.26,0,0,0,4.5,8.77,16.6,16.6,0,0,0,10.26,4.74c5.64.56,11.43-.61,17-1.74,3-.62,6.13-1.25,9.22-1.61,15.2-1.8,31.33,4.14,44.25,16.28,12.58,11.82,20.69,28.28,22.83,46.34,2.09,17.58-1.3,36.57-9.55,53.48a95.39,95.39,0,0,1-36.73,39.92,107.92,107.92,0,0,1-51.77,15.08Q874.42,563.67,872.68,563.67Zm59-208.55h0l1.21-.89Z"/><path class="cls-3" d="M1107.32,342.12l44.45.67a1.25,1.25,0,0,0,0-2.5l-44.45-.67a1.25,1.25,0,0,0,0,2.5Z"/><path class="cls-4" d="M1151.79,344.29h0l-44.44-.67a2.63,2.63,0,0,1-2.32-1.36,2.91,2.91,0,0,1,0-2.87,2.67,2.67,0,0,1,2.33-1.27l44.45.67a2.66,2.66,0,0,1,2.32,1.37,2.89,2.89,0,0,1,0,2.86A2.63,2.63,0,0,1,1151.79,344.29Zm-44.45-3.17,0,1Zm0-.5v.5h0v-.5Z"/><path class="cls-3" d="M1150.52,341.54l1.79,81.78q.45,20.26.89,40.51c.24,11.33.35,22.72-1.08,34-1.38,10.91-4.37,21.82-10.44,31.1-5.74,8.77-14.11,15.4-23.5,19.92A93,93,0,0,1,1088,557a102.59,102.59,0,0,1-36-2.06c-21-5.26-39.48-19-49.13-38.57a67.59,67.59,0,0,1-3.05-7.24c-.53-1.51-2.95-.86-2.41.66,7.22,20.39,23.69,36.44,43.7,44.29a94.79,94.79,0,0,0,36.64,6.1,108.55,108.55,0,0,0,33.1-5.61c9.89-3.44,19.26-8.71,26.58-16.28,7.72-8,12.55-18.15,15.16-28.87,2.74-11.27,3.3-23,3.3-34.52,0-13.11-.48-26.23-.76-39.33L1153.25,352l-.23-10.48a1.25,1.25,0,0,0-2.5,0Z"/><path class="cls-4" d="M1075.28,561.68a94.83,94.83,0,0,1-34.77-6.23c-21.08-8.28-37.32-24.75-44.56-45.19a2.57,2.57,0,0,1,1.61-3.35,2.81,2.81,0,0,1,3.63,1.69,64.52,64.52,0,0,0,3,7.07c9.21,18.65,26.76,32.42,48.15,37.78a100.59,100.59,0,0,0,35.48,2,91.37,91.37,0,0,0,29.74-8,56.17,56.17,0,0,0,22.9-19.38c5.29-8.09,8.63-18.06,10.2-30.47,1.42-11.13,1.31-22.32,1.07-33.76q-.3-13.5-.59-27L1149,341.58a2.63,2.63,0,0,1,2.65-2.74,2.69,2.69,0,0,1,2.85,2.67l2.06,94q.12,5.52.27,11c.24,9.28.49,18.88.49,28.32,0,10.46-.4,22.78-3.34,34.88s-8.14,21.89-15.54,29.55c-7,7.21-16.11,12.82-27.17,16.65a109.44,109.44,0,0,1-33.55,5.7ZM1152,341.51l-1.5,0,1.5,0Z"/><path class="cls-3" d="M1177.42,559.37l45.47-85.56,45.47-85.56,25.55-48.07-2.28-.3,28,86.46,28,86.46,15.69,48.45c.49,1.53,2.91.88,2.41-.66l-28-86.46-28-86.46L1294,339.22a1.27,1.27,0,0,0-2.29-.3l-45.47,85.56L1200.81,510l-25.55,48.07c-.75,1.42,1.4,2.69,2.16,1.26Z"/><path class="cls-4" d="M1364.47,563.62a2.74,2.74,0,0,1-2.62-1.9l-69.63-215.15L1178.75,560.08a2.63,2.63,0,0,1-3.63,1.08,2.75,2.75,0,0,1-1.18-3.75l115.92-218.12-.39-1.21,1,.13a2.65,2.65,0,0,1,2.58-1.39,2.88,2.88,0,0,1,2.46,1.93l0,.12.74.1-.44.84,71.31,220.32a2.62,2.62,0,0,1-1.74,3.35A2.88,2.88,0,0,1,1364.47,563.62Zm-188.37-5h0l1.32.7Z"/><path class="cls-3" d="M1246.51,426.83a25.1,25.1,0,0,0,13.49,3.11,28.59,28.59,0,0,0,13.22-4.61c4.22-2.58,8.2-5.62,12.88-7.37a43.47,43.47,0,0,1,14.34-2.49,126.58,126.58,0,0,1,16.84,1.13c1.6.18,1.58-2.33,0-2.5-9.44-1.07-19.22-2.1-28.53.4a44.8,44.8,0,0,0-13,6.22c-4,2.58-7.94,5.25-12.63,6.28a22.35,22.35,0,0,1-15.39-2.33c-1.41-.77-2.68,1.38-1.26,2.16Z"/><path class="cls-4" d="M1258.56,431.48a26.61,26.61,0,0,1-12.77-3.34,2.57,2.57,0,0,1-1.4-2.24,2.91,2.91,0,0,1,1.38-2.5,2.68,2.68,0,0,1,2.72,0,20.75,20.75,0,0,0,14.35,2.18c4.24-.92,7.84-3.27,11.66-5.76l.47-.31a46.71,46.71,0,0,1,13.39-6.41c9.8-2.62,20.05-1.47,29.09-.44a2.78,2.78,0,0,1,2.27,1.67,2.9,2.9,0,0,1-.26,2.83,2.51,2.51,0,0,1-2.35,1,126.9,126.9,0,0,0-16.64-1.12,41.49,41.49,0,0,0-13.85,2.4,48.65,48.65,0,0,0-9.33,5.15c-1.09.71-2.18,1.42-3.29,2.09-4.9,3-9.32,4.54-13.9,4.82C1259.58,431.47,1259.07,431.48,1258.56,431.48Zm-11.34-6-.71,1.32.72-1.32Z"/><path class="cls-5" d="M942.15,620.22c-1.53-2.78-4.06-6.19-8-6.57s-6.4,2.55-7.44,5.38c-1.4,3.82-1.29,8-1.42,11.94q-.24,7.17,0,14.36c.2,5.4.64,10.8,1.28,16.18,0,.2.38.2.36,0a200.29,200.29,0,0,1-1.42-26.36,94.41,94.41,0,0,1,.58-12.12c.45-3.27,1.59-7.86,5.88-8.92,4.74-1.18,8.13,3.17,9.83,6.27.1.17.4,0,.31-.16Z"/><path class="cls-4" d="M926.81,662.16a.72.72,0,0,1-.29-.06.63.63,0,0,1-.4-.53c-.65-5.41-1.09-10.87-1.29-16.22-.19-4.78-.2-9.62,0-14.4,0-.54,0-1.09,0-1.64.09-3.48.17-7.09,1.41-10.45,1.11-3,3.78-6.11,8-5.71,3.26.31,6.08,2.61,8.4,6.83h0a.64.64,0,0,1,0,.64.7.7,0,0,1-.59.33h0a.65.65,0,0,1-.56-.33c-1.5-2.74-4.71-7.16-9.27-6-4,1-5.06,5.33-5.51,8.51a84.41,84.41,0,0,0-.56,10.66v1.4a201.42,201.42,0,0,0,1.41,26.29.62.62,0,0,1-.24.58A.71.71,0,0,1,926.81,662.16Zm.3-.71Zm14.6-41Z"/><path class="cls-5" d="M925.62,635a21.59,21.59,0,0,1,18.81.37c.2.1.37-.16.18-.26a22,22,0,0,0-19.17-.37c-.2.09,0,.36.18.26Z"/><path class="cls-4" d="M944.52,635.87a.61.61,0,0,1-.32-.08,20.94,20.94,0,0,0-18.37-.35.7.7,0,0,1-.55,0,.69.69,0,0,1-.37-.34.61.61,0,0,1,0-.48.58.58,0,0,1,.34-.36,22.64,22.64,0,0,1,19.6.37.65.65,0,0,1,.36.54.67.67,0,0,1-.67.69Zm.13-1Zm-19.24-.37Z"/><path class="cls-5" d="M979.66,663a116.93,116.93,0,0,0,7.88-35c0-.21-.4-.27-.45,0a41.09,41.09,0,0,0,4,27.87c1.08,1.94,5.38,9.54,8.49,5.4,1.35-1.8,1.3-4.16.82-6.17a77.35,77.35,0,0,0-2.81-7.75,109.25,109.25,0,0,1-4.81-18.93c0-.24-.48-.14-.44.1a109.91,109.91,0,0,0,3.44,14.78q1.11,3.65,2.51,7.21c.92,2.34,2.05,4.73,2,7.23a6.11,6.11,0,0,1-.91,3.11,2.83,2.83,0,0,1-1.18,1.09,2.67,2.67,0,0,1-2.74-.82,19.3,19.3,0,0,1-3.86-5.32,38.51,38.51,0,0,1-4.24-12.27,41.91,41.91,0,0,1,.19-15.43l-.45-.05a117.24,117.24,0,0,1-7.85,34.86c-.1.24.34.34.43.1Z"/><path class="cls-4" d="M979.44,663.66a.79.79,0,0,1-.29-.06.65.65,0,0,1-.39-.86,114.83,114.83,0,0,0,7-26.57,43.17,43.17,0,0,1,.86-8.2l0-.47.22,0a.77.77,0,0,1,1.06.12l.23,0-.09.47c-.2,2.66-.47,5.29-.83,7.89a42.2,42.2,0,0,0,.62,7.41A38.21,38.21,0,0,0,992,655.57a19.44,19.44,0,0,0,3.76,5.19c.88.77,1.58,1,2.21.73a2.27,2.27,0,0,0,1-.91,5.59,5.59,0,0,0,.83-2.85,15.43,15.43,0,0,0-1.54-6.07l-.38-.95c-.92-2.35-1.77-4.79-2.53-7.25a110.85,110.85,0,0,1-3.45-14.85.69.69,0,0,1,.24-.64.78.78,0,0,1,.76-.13.63.63,0,0,1,.42.51,109.08,109.08,0,0,0,4.79,18.85c.32.9.69,1.79,1,2.69a35.11,35.11,0,0,1,1.78,5.11c.44,1.86.64,4.51-.91,6.58a3,3,0,0,1-2.65,1.41c-2-.14-4.24-2.45-6.68-6.87a39.6,39.6,0,0,1-4.52-13.61,115.38,115.38,0,0,1-6,20.7h0A.73.73,0,0,1,979.44,663.66Z"/><path class="cls-5" d="M1015.56,627.17v36.7c0,.25.42.25.42,0v-36.7a.21.21,0,0,0-.42,0Z"/><path class="cls-4" d="M1015.77,664.56a.7.7,0,0,1-.71-.69v-36.7a.71.71,0,0,1,1.42,0v36.7a.67.67,0,0,1-.25.53A.76.76,0,0,1,1015.77,664.56Z"/><path class="cls-5" d="M1007.9,633.73c1.42-2.9,4.07-6.4,7.89-6.36s6.45,3.58,7.85,6.49c.11.24.47,0,.36-.2-1.46-3-4.23-6.65-8.21-6.69s-6.77,3.53-8.25,6.56c-.11.23.25.43.36.2Z"/><path class="cls-4" d="M1023.79,634.47h0a.7.7,0,0,1-.56-.39c-1.1-2.31-3.53-6.18-7.39-6.21h0c-4,0-6.49,4.24-7.39,6.08a.66.66,0,0,1-.56.38.74.74,0,0,1-.65-.33.68.68,0,0,1,0-.69c1-2.06,3.87-6.84,8.64-6.84h.06c4.82,0,7.66,4.89,8.66,7a.68.68,0,0,1,0,.69A.76.76,0,0,1,1023.79,634.47Zm-.24-.59Z"/><path class="cls-4" d="M960,661.47c-5.11,0-9.27-7.16-9.27-16s4.16-16,9.27-16,9.27,7.15,9.27,16S965.11,661.47,960,661.47Zm0-30.71c-4.45,0-8.07,6.62-8.07,14.75s3.62,14.76,8.07,14.76,8.07-6.62,8.07-14.76S964.45,630.76,960,630.76Z"/></g></svg>